<svg width="84" height="48" viewBox="0 0 84 48" fill="none" xmlns="http://www.w3.org/2000/svg">
<path fill-rule="evenodd" clip-rule="evenodd" d="M6.0916 0C5.56038 0 5.12977 0.429808 5.12977 0.96C5.12977 3.2575 3.26372 5.12 0.961832 5.12C0.430628 5.12 0 5.54979 0 6.08V9.28C0 9.81021 0.430628 10.24 0.961832 10.24C1.49304 10.24 1.92366 10.6698 1.92366 11.2C1.92366 11.7302 1.49304 12.16 0.961832 12.16C0.430628 12.16 0 12.5898 0 13.12V15.68C0 16.2102 0.430628 16.64 0.961832 16.64C1.49304 16.64 1.92366 17.0698 1.92366 17.6C1.92366 18.1302 1.49304 18.56 0.961832 18.56C0.430628 18.56 0 18.9898 0 19.52V22.08C0 22.6102 0.430628 23.04 0.961832 23.04C1.49304 23.04 1.92366 23.4698 1.92366 24C1.92366 24.5302 1.49304 24.96 0.961832 24.96C0.430628 24.96 0 25.3898 0 25.92V28.48C0 29.0102 0.430628 29.44 0.961832 29.44C1.49304 29.44 1.92366 29.8698 1.92366 30.4C1.92366 30.9302 1.49304 31.36 0.961832 31.36C0.430628 31.36 0 31.7898 0 32.32V34.88C0 35.4102 0.430628 35.84 0.961832 35.84C1.49304 35.84 1.92366 36.2698 1.92366 36.8C1.92366 37.3302 1.49304 37.76 0.961832 37.76C0.430628 37.76 0 38.1898 0 38.72V41.92C0 42.4502 0.430628 42.88 0.961832 42.88C3.26372 42.88 5.12977 44.7424 5.12977 47.04C5.12977 47.5702 5.56038 48 6.0916 48H77.9084C78.4396 48 78.8702 47.5702 78.8702 47.04C78.8702 44.7424 80.7362 42.88 83.0382 42.88C83.5694 42.88 84 42.4502 84 41.92V38.72C84 38.1898 83.5694 37.76 83.0382 37.76C82.5069 37.76 82.0763 37.3302 82.0763 36.8C82.0763 36.2698 82.5069 35.84 83.0382 35.84C83.5694 35.84 84 35.4102 84 34.88V32.32C84 31.7898 83.5694 31.36 83.0382 31.36C82.5069 31.36 82.0763 30.9302 82.0763 30.4C82.0763 29.8698 82.5069 29.44 83.0382 29.44C83.5694 29.44 84 29.0102 84 28.48V25.92C84 25.3898 83.5694 24.96 83.0382 24.96C82.5069 24.96 82.0763 24.5302 82.0763 24C82.0763 23.4698 82.5069 23.04 83.0382 23.04C83.5694 23.04 84 22.6102 84 22.08V19.52C84 18.9898 83.5694 18.56 83.0382 18.56C82.5069 18.56 82.0763 18.1302 82.0763 17.6C82.0763 17.0698 82.5069 16.64 83.0382 16.64C83.5694 16.64 84 16.2102 84 15.68V13.12C84 12.5898 83.5694 12.16 83.0382 12.16C82.5069 12.16 82.0763 11.7302 82.0763 11.2C82.0763 10.6698 82.5069 10.24 83.0382 10.24C83.5694 10.24 84 9.81021 84 9.28V6.08C84 5.54979 83.5694 5.12 83.0382 5.12C80.7362 5.12 78.8702 3.2575 78.8702 0.96C78.8702 0.429808 78.4396 0 77.9084 0H6.0916ZM10.5802 8H30.458V40H10.5802C9.51774 40 8.65649 39.1405 8.65649 38.08V9.92C8.65649 8.85962 9.51774 8 10.5802 8ZM10.5802 6.72H73.4198C75.1906 6.72 76.626 8.1527 76.626 9.92V38.08C76.626 39.8474 75.1906 41.28 73.4198 41.28H10.5802C8.80948 41.28 7.37405 39.8474 7.37405 38.08V9.92C7.37405 8.1527 8.80948 6.72 10.5802 6.72ZM70.2673 26.6362L75.3435 32.5318V34.6669L69.0515 27.359C67.7723 25.8732 65.4674 25.8732 64.1882 27.359L59.6018 32.6858C59.8276 32.9373 60.0279 33.2102 60.2001 33.5008C61.0257 32.5478 62.4152 31.0182 62.4152 31.0182C63.1747 32.2278 64.8297 32.8832 66.3276 31.8286C67.2718 31.1639 68.5328 31.1639 69.477 31.8286C70.282 32.3955 71.1326 32.4685 71.8649 32.2266L75.3435 36.2669V38.08C75.3435 39.1363 74.4891 39.9933 73.4323 40H31.7405V27.4518C31.9002 27.4523 32.0665 27.4329 32.238 27.3909L40.5156 25.363C41.5835 25.1013 42.7079 25.1892 43.722 25.6137L45.9381 26.5412C46.7204 26.8686 47.5716 26.9973 48.4161 26.9158L50.5305 26.7116L57.8629 34.0301C58.1331 34.2995 58.3614 34.6077 58.5406 34.9446L61.2299 40H62.1985V39.975L59.1818 34.3046C59.0026 33.9677 58.7744 33.6595 58.5041 33.3901L43.6915 18.6055C42.1888 17.1059 39.7528 17.1059 38.2505 18.6055L31.7405 25.1031V23.2929L37.3438 17.7004C39.3469 15.7009 42.5951 15.7009 44.5982 17.7004L58.6281 31.7037L62.9724 26.6362C64.8913 24.4074 68.3484 24.4074 70.2673 26.6362ZM19.4365 13.44H14.4275V34.56H19.6478C21.2974 34.56 22.5446 34.1376 23.3895 33.2928C24.2545 32.4278 24.687 31.1808 24.687 29.5516V27.7412C24.687 25.3678 23.8623 23.8994 22.2126 23.3362V23.2759C22.9369 22.9742 23.47 22.4814 23.8119 21.7975C24.174 21.1136 24.3551 20.2286 24.3551 19.1424V18.2976C24.3551 16.6482 23.9628 15.4313 23.1783 14.6468C22.3937 13.8423 21.1465 13.44 19.4365 13.44ZM20.5229 21.526C20.201 21.8679 19.7081 22.0388 19.0443 22.0388H17.7467V16.4572H19.346C19.9294 16.4572 20.3519 16.6281 20.6134 16.97C20.895 17.312 21.0358 17.8652 21.0358 18.6295V19.8062C21.0358 20.6108 20.8648 21.184 20.5229 21.526ZM20.9453 31.0903C20.6637 31.392 20.2312 31.5428 19.6478 31.5428H17.7467V25.056H19.2253C19.9898 25.056 20.5329 25.2471 20.8548 25.6292C21.1968 25.9913 21.3678 26.6551 21.3678 27.6206V29.461C21.3678 30.2254 21.2269 30.7684 20.9453 31.0903ZM44.0949 24.293C44.4331 24.1876 44.6213 23.8286 44.5158 23.4913L43.4136 19.9692C43.3081 19.6318 42.9484 19.4437 42.6104 19.5491C42.2722 19.6545 42.084 20.0135 42.1895 20.3508L43.2917 23.8729C43.3972 24.2103 43.7569 24.3984 44.0949 24.293ZM66.7447 28.7451C66.5979 28.4234 66.7402 28.0439 67.0628 27.8975C67.385 27.7511 67.7652 27.8932 67.9118 28.2149L68.3962 29.2771C68.543 29.5988 68.4004 29.9783 68.0782 30.1247C67.7559 30.2711 67.3757 30.129 67.2289 29.8073L66.7447 28.7451ZM52.9854 40H54.4192L49.9476 31.0737C49.7892 30.7575 49.4042 30.6294 49.0874 30.7875C48.7707 30.9455 48.6421 31.33 48.8005 31.6461L52.9854 40ZM62.5191 20.8C64.6438 20.8 66.3664 19.0808 66.3664 16.96C66.3664 14.8392 64.6438 13.12 62.5191 13.12C60.3944 13.12 58.6718 14.8392 58.6718 16.96C58.6718 19.0808 60.3944 20.8 62.5191 20.8Z" fill="white"/>
</svg>
