<svg fill="none" height="170" viewBox="0 0 868 170" width="868" xmlns="http://www.w3.org/2000/svg" xmlns:xlink="http://www.w3.org/1999/xlink"><radialGradient id="a" cx="0" cy="0" gradientTransform="matrix(0 -199.639 508.138 0 434 170.118)" gradientUnits="userSpaceOnUse" r="1"><stop offset="0" stop-color="#4e3a21"/><stop offset="1" stop-color="#8b6841"/></radialGradient><g fill="url(#a)"><path d="m461.261 0c20.653 0 23.265 12.9383 29.556 1.89941h4.867v65.99609h-6.529c-2.967-47.8354-10.445-61.96093-27.063-61.96093-13.057.00009-20.416 7.47873-20.416 22.43453 0 14.7184 5.698 24.4514 20.772 40.7129l13.769 15.4307c14.125 15.6683 23.74 30.5053 23.74 49.0223 0 23.146-13.769 36.441-35.491 36.441-22.671 0-25.521-13.294-32.524-1.9h-4.866v-70.6248h6.528c3.324 50.9218 11.277 66.4708 30.15 66.4708 15.075 0 23.502-8.428 23.502-24.927 0-15.668-7.241-27.063-21.485-43.0868l-13.887-15.7871c-15.075-16.2616-22.553-29.0813-22.553-46.4111 0-21.7215 11.751-33.70984064 31.93-33.71z"/><path d="m549.572 0c20.654 0 23.266 12.9383 29.557 1.89941h4.866v65.99609h-6.528c-2.968-47.8354-10.446-61.96093-27.064-61.96093-13.056.00006-20.416 7.47863-20.416 22.43453 0 14.7184 5.698 24.4514 20.773 40.7129l13.768 15.4307c14.125 15.6683 23.74 30.5053 23.741 49.0223 0 23.146-13.77 36.441-35.492 36.441-22.671 0-25.52-13.294-32.523-1.9h-4.866v-70.6248h6.528c3.324 50.9218 11.276 66.4708 30.149 66.4708 15.075 0 23.502-8.428 23.502-24.927 0-15.668-7.24-27.063-21.484-43.0868l-13.888-15.7871c-15.074-16.2616-22.552-29.0813-22.552-46.4111 0-21.7215 11.751-33.70987006 31.929-33.71z"/><path d="m737.234 0c21.485 0 24.334 12.4632 30.387 1.89941h4.866v57.80569h-6.409c-2.73-42.0191-10.208-53.77053-27.894-53.77053-17.33.00022-25.52 13.53223-25.52 44.39353v66.2339c0 30.505 7.359 45.817 23.146 45.817 15.549 0 25.045-15.787 25.164-57.094 0-13.5313-1.662-14.481-22.909-15.1932v-5.3408h44.275v5.3408c-7.716.7122-8.428 1.5433-8.428 9.4961v68.4881h-4.866c-.594-6.766-2.374-15.786-3.917-22.671l-2.256-.119c-5.341 15.787-16.262 24.571-31.455 24.571-22.196 0-33.71-18.399-33.71-53.652v-62.9091c0-34.7785 14.006-53.29587669 39.526-53.2959z"/><path d="m35.4912 7.24023c-12.4633.71219-13.413 1.78076-7.1221 34.06637l13.0567 71.2184c2.2552 11.87 4.3918 24.334 6.291 37.391h2.2549c2.1365-12.938 4.3922-25.521 6.6474-37.865l9.4961-49.4973c9.3771-49.3782 7.3587-54.48258-4.8672-55.31347v-5.34082h30.1495v5.34082c-5.6975 1.06831-7.953 5.46047-11.0391 18.39847l-27.3008 142.4373h-14.4805l-29.43745-151.1024c-1.89914-7.95254-2.9674-8.90249-9.13965-9.73337v-5.34082h35.4912z"/><path d="m174.605 51.8711h-6.053c-3.086-36.5587-6.885-43.44325-24.333-43.44337h-21.247v68.48827h12.7c10.445 0 12.464-3.3232 13.769-22.4336h4.986v51.1596h-4.986c-1.305-19.2295-3.324-22.5531-13.769-22.5531h-12.7v78.4591h22.314c17.567 0 21.367-7.596 24.334-53.295h6.053l-1.661 59.823h-76.4417v-5.341c10.0887-.712 10.8007-1.543 10.8007-9.733v-136.0284c0-8.18985-.712-9.02119-10.8007-9.73337v-5.34082h75.2537z"/><path clip-rule="evenodd" d="m228.731 1.89941c24.452.00002 36.915 11.98819 36.915 34.42189v14.2441c0 18.2795-9.258 29.4371-28.25 31.6924v2.1367c11.87 1.8992 17.212 6.6471 20.536 26.9445l3.441 20.298c3.324 20.534 6.054 28.962 11.87 31.098l-.237 5.341h-17.33c-4.036-7.122-6.172-16.499-9.14-36.796l-2.968-20.06c-2.967-20.0598-7.596-25.4016-20.059-25.4016h-11.751v67.1836c0 8.071.712 9.021 10.802 9.733v5.341h-35.966v-5.341c9.852-.712 10.563-1.662 10.563-9.733v-136.0284c0-8.07118-.712-9.02118-10.801-9.73337v-5.34082zm-16.973 77.27249h14.719c16.736-.0002 24.451-7.9534 24.451-26.5889v-17.3301c0-18.7538-7.715-26.58773-24.451-26.58786h-14.719z" fill-rule="evenodd"/><path d="m345.412 119.055c3.798 11.632 5.342 18.16 7.359 27.419l2.374-.238c-.95-13.412-1.306-24.807-1.306-36.084l-.118-81.1901c0-14.8369-2.493-19.94121-14.482-21.72167v-5.34082h32.761v5.34082c-9.377 1.89918-10.802 5.69837-10.802 19.34867v141.4871h-14.956l-39.407-119.1727c-4.154-12.5817-6.172-19.4662-8.071-29.1992l-2.374.2373c.831 12.938 1.186 23.7399 1.186 33.5918l.119 85.9378c0 15.668 2.611 21.009 14.837 23.264v5.341h-33.117v-5.341c9.377-1.899 10.802-5.697 10.802-19.347v-126.4144c0-8.07125-.713-9.02118-10.802-9.73337v-5.34082h27.775z"/><path d="m415.562 7.24023c-10.089.71219-10.801 1.66212-10.801 9.73337v136.0284c0 8.071.712 9.021 10.801 9.733v5.341h-36.203v-5.341c10.09-.712 10.802-1.662 10.802-9.733v-136.0284c0-8.07125-.712-9.02118-10.802-9.73337v-5.34082h36.203z"/><path clip-rule="evenodd" d="m680.141 153.002c1.899 7.953 2.848 8.902 9.139 9.733v5.341h-35.372v-5.103c12.107-.713 13.294-1.781 11.514-10.327l-4.866-25.045h-40.477l-3.205 17.33c-2.611 12.581-.474 17.329 11.396 18.042v5.103h-29.793v-5.341c5.578-.831 7.715-4.748 10.445-16.618l27.538-144.21759h14.6zm-40.595-133.417c-2.018 13.0566-4.273 25.5201-7.359 42.375l-10.802 59.112h37.983l-10.682-59.7048c-2.968-16.3804-4.986-28.7254-6.885-41.7822z" fill-rule="evenodd"/><path d="m866.378 51.8711h-6.054c-3.086-36.559-6.884-43.44337-24.333-43.44337h-21.247v68.48827h12.701c10.446 0 12.463-3.3233 13.769-22.4336h4.985v51.1596h-4.985c-1.306-19.2293-3.323-22.5531-13.769-22.5531h-12.701v78.4591h22.316c17.567 0 21.365-7.596 24.333-53.295h6.053l-1.662 59.823h-76.441v-5.341c10.089-.712 10.802-1.543 10.802-9.733v-136.0284c0-8.18995-.713-9.02118-10.802-9.73337v-5.34082h75.255z"/><path d="m461.261 0c20.653 0 23.265 12.9383 29.556 1.89941h4.867v65.99609h-6.529c-2.967-47.8354-10.445-61.96093-27.063-61.96093-13.057.00009-20.416 7.47873-20.416 22.43453 0 14.7184 5.698 24.4514 20.772 40.7129l13.769 15.4307c14.125 15.6683 23.74 30.5053 23.74 49.0223 0 23.146-13.769 36.441-35.491 36.441-22.671 0-25.521-13.294-32.524-1.9h-4.866v-70.6248h6.528c3.324 50.9218 11.277 66.4708 30.15 66.4708 15.075 0 23.502-8.428 23.502-24.927 0-15.668-7.241-27.063-21.485-43.0868l-13.887-15.7871c-15.075-16.2616-22.553-29.0813-22.553-46.4111 0-21.7215 11.751-33.70984064 31.93-33.71z"/><path d="m549.572 0c20.654 0 23.266 12.9383 29.557 1.89941h4.866v65.99609h-6.528c-2.968-47.8354-10.446-61.96093-27.064-61.96093-13.056.00006-20.416 7.47863-20.416 22.43453 0 14.7184 5.698 24.4514 20.773 40.7129l13.768 15.4307c14.125 15.6683 23.74 30.5053 23.741 49.0223 0 23.146-13.77 36.441-35.492 36.441-22.671 0-25.52-13.294-32.523-1.9h-4.866v-70.6248h6.528c3.324 50.9218 11.276 66.4708 30.149 66.4708 15.075 0 23.502-8.428 23.502-24.927 0-15.668-7.24-27.063-21.484-43.0868l-13.888-15.7871c-15.074-16.2616-22.552-29.0813-22.552-46.4111 0-21.7215 11.751-33.70987006 31.929-33.71z"/><path d="m737.234 0c21.485 0 24.334 12.4632 30.387 1.89941h4.866v57.80569h-6.409c-2.73-42.0191-10.208-53.77053-27.894-53.77053-17.33.00022-25.52 13.53223-25.52 44.39353v66.2339c0 30.505 7.359 45.817 23.146 45.817 15.549 0 25.045-15.787 25.164-57.094 0-13.5313-1.662-14.481-22.909-15.1932v-5.3408h44.275v5.3408c-7.716.7122-8.428 1.5433-8.428 9.4961v68.4881h-4.866c-.594-6.766-2.374-15.786-3.917-22.671l-2.256-.119c-5.341 15.787-16.262 24.571-31.455 24.571-22.196 0-33.71-18.399-33.71-53.652v-62.9091c0-34.7785 14.006-53.29587669 39.526-53.2959z"/><path d="m35.4912 7.24023c-12.4633.71219-13.413 1.78076-7.1221 34.06637l13.0567 71.2184c2.2552 11.87 4.3918 24.334 6.291 37.391h2.2549c2.1365-12.938 4.3922-25.521 6.6474-37.865l9.4961-49.4973c9.3771-49.3782 7.3587-54.48258-4.8672-55.31347v-5.34082h30.1495v5.34082c-5.6975 1.06831-7.953 5.46047-11.0391 18.39847l-27.3008 142.4373h-14.4805l-29.43745-151.1024c-1.89914-7.95254-2.9674-8.90249-9.13965-9.73337v-5.34082h35.4912z"/><path d="m174.605 51.8711h-6.053c-3.086-36.5587-6.885-43.44325-24.333-43.44337h-21.247v68.48827h12.7c10.445 0 12.464-3.3232 13.769-22.4336h4.986v51.1596h-4.986c-1.305-19.2295-3.324-22.5531-13.769-22.5531h-12.7v78.4591h22.314c17.567 0 21.367-7.596 24.334-53.295h6.053l-1.661 59.823h-76.4417v-5.341c10.0887-.712 10.8007-1.543 10.8007-9.733v-136.0284c0-8.18985-.712-9.02119-10.8007-9.73337v-5.34082h75.2537z"/><path clip-rule="evenodd" d="m228.731 1.89941c24.452.00002 36.915 11.98819 36.915 34.42189v14.2441c0 18.2795-9.258 29.4371-28.25 31.6924v2.1367c11.87 1.8992 17.212 6.6471 20.536 26.9445l3.441 20.298c3.324 20.534 6.054 28.962 11.87 31.098l-.237 5.341h-17.33c-4.036-7.122-6.172-16.499-9.14-36.796l-2.968-20.06c-2.967-20.0598-7.596-25.4016-20.059-25.4016h-11.751v67.1836c0 8.071.712 9.021 10.802 9.733v5.341h-35.966v-5.341c9.852-.712 10.563-1.662 10.563-9.733v-136.0284c0-8.07118-.712-9.02118-10.801-9.73337v-5.34082zm-16.973 77.27249h14.719c16.736-.0002 24.451-7.9534 24.451-26.5889v-17.3301c0-18.7538-7.715-26.58773-24.451-26.58786h-14.719z" fill-rule="evenodd"/><path d="m345.412 119.055c3.798 11.632 5.342 18.16 7.359 27.419l2.374-.238c-.95-13.412-1.306-24.807-1.306-36.084l-.118-81.1901c0-14.8369-2.493-19.94121-14.482-21.72167v-5.34082h32.761v5.34082c-9.377 1.89918-10.802 5.69837-10.802 19.34867v141.4871h-14.956l-39.407-119.1727c-4.154-12.5817-6.172-19.4662-8.071-29.1992l-2.374.2373c.831 12.938 1.186 23.7399 1.186 33.5918l.119 85.9378c0 15.668 2.611 21.009 14.837 23.264v5.341h-33.117v-5.341c9.377-1.899 10.802-5.697 10.802-19.347v-126.4144c0-8.07125-.713-9.02118-10.802-9.73337v-5.34082h27.775z"/><path d="m415.562 7.24023c-10.089.71219-10.801 1.66212-10.801 9.73337v136.0284c0 8.071.712 9.021 10.801 9.733v5.341h-36.203v-5.341c10.09-.712 10.802-1.662 10.802-9.733v-136.0284c0-8.07125-.712-9.02118-10.802-9.73337v-5.34082h36.203z"/><path clip-rule="evenodd" d="m680.141 153.002c1.899 7.953 2.848 8.902 9.139 9.733v5.341h-35.372v-5.103c12.107-.713 13.294-1.781 11.514-10.327l-4.866-25.045h-40.477l-3.205 17.33c-2.611 12.581-.474 17.329 11.396 18.042v5.103h-29.793v-5.341c5.578-.831 7.715-4.748 10.445-16.618l27.538-144.21759h14.6zm-40.595-133.417c-2.018 13.0566-4.273 25.5201-7.359 42.375l-10.802 59.112h37.983l-10.682-59.7048c-2.968-16.3804-4.986-28.7254-6.885-41.7822z" fill-rule="evenodd"/><path d="m866.378 51.8711h-6.054c-3.086-36.559-6.884-43.44337-24.333-43.44337h-21.247v68.48827h12.701c10.446 0 12.463-3.3233 13.769-22.4336h4.985v51.1596h-4.985c-1.306-19.2293-3.323-22.5531-13.769-22.5531h-12.701v78.4591h22.316c17.567 0 21.365-7.596 24.333-53.295h6.053l-1.662 59.823h-76.441v-5.341c10.089-.712 10.802-1.543 10.802-9.733v-136.0284c0-8.18995-.713-9.02118-10.802-9.73337v-5.34082h75.255z"/></g></svg>